# xmcd
#
# Track frame offsets:
# 150
# 18390
# 35608
# 53546
# 75039
# 94420
# 112357
# 146818
# 164162
# 202147
# 224515
# 255523
#
# Disc length: 3672 seconds
#
# Revision: 0
# Processed by: cddbd v1.5.2PL0 Copyright (c) Steve Scherf et al.
# Submitted via: Audion 3.0.2 (http://www.panic.com/audion/)
#
DISCID=b10e560c
DTITLE=Pugsley Buzzard - Hammer These Tongs
DYEAR=1900
DGENRE=
TTITLE0=Hammer These Tongs
TTITLE1=10cm Line
TTITLE2=Shang Hai-ed
TTITLE3=No Show Joe
TTITLE4=Cutting The Tie
TTITLE5=Just The Same
TTITLE6=Chasin' Geeses
TTITLE7=See You at Lulu White's
TTITLE8=Falling Down a Hole
TTITLE9=Big Edna Bites Back
TTITLE10=Buzzard's Blues
TTITLE11=Marlboro Lites
EXTD=
EXTT0=
EXTT1=
EXTT2=
EXTT3=
EXTT4=
EXTT5=
EXTT6=
EXTT7=
EXTT8=
EXTT9=
EXTT10=
EXTT11=
PLAYORDER=
